<svg width="1024" height="250" viewBox="0 0 1024 250" fill="none" xmlns="http://www.w3.org/2000/svg">
<g opacity="0.86">
<path d="M563.283 125.356L501.88 69.9147L502.238 121.779H484.712V30.5693H485.427L546.71 86.8451L546.353 34.0269H563.76V125.356H563.283Z" fill="white"/>
<path d="M586.358 34.0269H641.204V50.7189H603.647V70.6301H636.196V87.322H603.647V121.779H586.358V34.0269Z" fill="white"/>
<path d="M651.888 34.0269H711.025V50.7189H689.683V121.779H672.395V50.7189H651.888V34.0269Z" fill="white"/>
<path d="M486.858 161.677H503.55V184.331H516.188V197.327H503.55V236.672H486.858V197.327H478.75V184.331H486.858V161.677Z" fill="white"/>
<path d="M528.892 236.672V142.601H545.227V192.796C547.055 189.616 549.638 187.033 552.976 185.046C556.315 183.059 560.369 182.065 565.138 182.065C570.066 182.065 574.159 183.536 577.418 186.477C580.757 189.338 582.466 193.074 582.545 197.684V236.672H565.853V203.884C565.774 201.579 565.138 199.751 563.945 198.4C562.833 196.969 560.925 196.254 558.222 196.254C554.328 196.254 551.228 198.082 548.923 201.738C546.697 205.315 545.584 209.885 545.584 215.449V236.672H528.892Z" fill="white"/>
<path d="M625.318 238.103C618.959 238.103 613.554 236.91 609.103 234.526C604.731 232.141 601.393 228.843 599.088 224.63C596.783 220.417 595.63 215.569 595.63 210.084C595.63 204.838 596.982 200.109 599.684 195.896C602.387 191.683 606.003 188.345 610.534 185.881C615.065 183.337 620.112 182.065 625.676 182.065C633.148 182.065 639.268 184.251 644.037 188.623C648.886 192.915 652.025 199.155 653.456 207.342L615.303 219.503C617.847 222.444 621.304 223.915 625.676 223.915C627.504 223.915 629.253 223.597 630.922 222.961C632.671 222.325 634.38 221.49 636.049 220.457L643.441 232.857C640.659 234.446 637.639 235.718 634.38 236.672C631.2 237.626 628.18 238.103 625.318 238.103ZM612.084 209.13C612.084 209.528 612.084 209.885 612.084 210.203L634.976 202.453C634.26 200.466 633.108 198.757 631.518 197.327C629.928 195.816 627.544 195.061 624.364 195.061C620.629 195.061 617.648 196.333 615.422 198.877C613.197 201.42 612.084 204.838 612.084 209.13Z" fill="white"/>
<path d="M741.558 184.569L751.334 207.58L759.919 184.569H776.134L752.646 239.772L735.954 205.196L720.693 239.772L696.966 184.569H713.181L722.839 206.626L730.112 190.531L727.369 184.569H741.558Z" fill="white"/>
<path d="M780.062 209.965C780.062 204.639 781.294 199.87 783.758 195.657C786.302 191.445 789.839 188.146 794.369 185.761C798.9 183.297 804.106 182.065 809.988 182.065C815.95 182.065 821.116 183.297 825.488 185.761C829.86 188.146 833.198 191.445 835.503 195.657C837.888 199.87 839.08 204.639 839.08 209.965C839.08 215.29 837.888 220.099 835.503 224.391C833.198 228.604 829.86 231.943 825.488 234.407C821.116 236.871 815.87 238.103 809.75 238.103C804.027 238.103 798.9 236.99 794.369 234.764C789.918 232.539 786.421 229.32 783.877 225.107C781.334 220.894 780.062 215.847 780.062 209.965ZM796.873 210.084C796.873 214.217 798.065 217.675 800.45 220.457C802.835 223.159 805.855 224.511 809.511 224.511C813.406 224.511 816.506 223.159 818.811 220.457C821.116 217.675 822.269 214.217 822.269 210.084C822.269 205.951 821.116 202.533 818.811 199.83C816.506 197.048 813.406 195.657 809.511 195.657C805.855 195.657 802.835 197.048 800.45 199.83C798.065 202.533 796.873 205.951 796.873 210.084Z" fill="white"/>
<path d="M867.252 184.569L868.564 196.492C870.074 193.472 872.141 190.888 874.764 188.742C877.387 186.517 879.97 184.847 882.514 183.735C885.057 182.542 887.005 181.946 888.356 181.946L887.521 198.638C883.626 198.161 880.288 198.797 877.506 200.546C874.724 202.294 872.578 204.6 871.068 207.461C869.557 210.322 868.802 213.263 868.802 216.284V236.672H852.23V184.569H867.252Z" fill="white"/>
<path d="M901.132 142.601H917.824V236.672H901.132V142.601Z" fill="white"/>
<path d="M956.237 238.103C951.388 238.103 947.056 236.99 943.241 234.764C939.426 232.459 936.405 229.161 934.18 224.868C932.034 220.576 930.96 215.489 930.96 209.607C930.96 203.725 932.153 198.718 934.537 194.584C936.922 190.451 940.181 187.311 944.314 185.165C948.447 183.019 953.137 181.946 958.383 181.946C961.721 181.946 964.901 182.463 967.921 183.496C971.021 184.529 973.604 186.119 975.671 188.265V142.601H992.244V236.672H975.552V231.187C973.008 233.175 970.147 234.844 966.967 236.195C963.788 237.467 960.211 238.103 956.237 238.103ZM961.721 224.034C965.06 224.034 967.842 223.398 970.067 222.126C972.293 220.775 974.121 218.788 975.552 216.165V203.407C974.598 200.864 972.889 198.837 970.425 197.327C967.961 195.816 965.06 195.061 961.721 195.061C959.257 195.061 956.952 195.697 954.806 196.969C952.74 198.161 951.07 199.83 949.799 201.977C948.527 204.123 947.891 206.587 947.891 209.369C947.891 212.151 948.527 214.654 949.799 216.88C951.07 219.106 952.74 220.854 954.806 222.126C956.952 223.398 959.257 224.034 961.721 224.034Z" fill="white"/>
<path d="M1005.12 145.462H1020.03V212.946H1005.12V145.462ZM1012.99 238.341C1010.13 238.341 1007.79 237.586 1005.96 236.076C1004.13 234.486 1003.22 232.419 1003.22 229.876C1003.22 227.412 1004.13 225.345 1005.96 223.676C1007.87 222.007 1010.21 221.172 1012.99 221.172C1015.77 221.172 1018.04 222.007 1019.79 223.676C1021.62 225.345 1022.53 227.412 1022.53 229.876C1022.53 232.419 1021.66 234.486 1019.91 236.076C1018.16 237.586 1015.85 238.341 1012.99 238.341Z" fill="white"/>
<path fill-rule="evenodd" clip-rule="evenodd" d="M562.824 126.548L503.091 72.6144L503.438 122.971H483.519V29.377H485.891L545.499 84.1145L545.152 32.8346H564.952V126.548H562.824ZM546.71 86.8451L485.427 30.5693H484.712V121.779H502.238L501.88 69.9147L563.283 125.356H563.76V34.0269H546.353L546.71 86.8451ZM585.166 32.8346H642.396V51.9112H604.839V69.4378H637.388V88.5143H604.839V122.971H585.166V32.8346ZM603.647 87.322H636.196V70.6301H603.647V50.7189H641.204V34.0269H586.358V121.779H603.647V87.322ZM650.695 32.8346H712.217V51.9112H690.875V122.971H671.202V51.9112H650.695V32.8346ZM672.395 50.7189V121.779H689.683V50.7189H711.025V34.0269H651.888V50.7189H672.395ZM485.665 160.485H504.742V183.138H517.38V198.519H504.742V237.864H485.665V198.519H477.558V183.138H485.665V160.485ZM486.858 184.331H478.75V197.327H486.858V236.672H503.55V197.327H516.188V184.331H503.55V161.677H486.858V184.331ZM527.7 237.864V141.408H546.419V189.018C548.057 187.07 550.042 185.405 552.366 184.021C555.927 181.902 560.202 180.873 565.137 180.873C570.316 180.873 574.702 182.425 578.205 185.581C581.809 188.675 583.652 192.737 583.737 197.664L583.737 197.674V237.864H564.661V203.905C564.585 201.808 564.011 200.277 563.051 199.188L563.027 199.161L563.004 199.132C562.211 198.112 560.743 197.446 558.222 197.446C554.789 197.446 552.048 199.018 549.933 202.371C547.858 205.707 546.776 210.04 546.776 215.449V237.864H527.7ZM565.853 203.884V236.672H582.545V197.684C582.466 193.074 580.757 189.338 577.418 186.477C574.159 183.536 570.066 182.065 565.138 182.065C560.369 182.065 556.315 183.059 552.976 185.046C550.308 186.634 548.122 188.603 546.419 190.953C545.991 191.543 545.594 192.158 545.227 192.796V142.601H528.892V236.672H545.584V215.449C545.584 209.885 546.697 205.315 548.923 201.738C551.228 198.082 554.328 196.254 558.222 196.254C560.925 196.254 562.833 196.969 563.945 198.4C565.138 199.751 565.774 201.579 565.853 203.884ZM608.54 235.577L608.532 235.573C603.968 233.083 600.461 229.623 598.042 225.202C595.628 220.79 594.438 215.74 594.438 210.084C594.438 204.621 595.849 199.666 598.68 195.252C601.493 190.867 605.259 187.393 609.957 184.837C614.677 182.189 619.925 180.873 625.676 180.873C633.392 180.873 639.813 183.137 644.835 187.737C649.933 192.253 653.167 198.764 654.63 207.137L654.81 208.162L617.54 220.041C619.659 221.817 622.345 222.722 625.676 222.722C627.362 222.722 628.967 222.43 630.497 221.847L630.506 221.843L630.514 221.84C632.182 221.234 633.818 220.436 635.421 219.443L636.452 218.805L645.087 233.289L644.032 233.892C641.166 235.53 638.059 236.837 634.718 237.815C631.446 238.796 628.311 239.295 625.318 239.295C618.813 239.295 613.204 238.075 608.54 235.577ZM634.38 236.672C637.235 235.836 639.907 234.757 642.396 233.433C642.748 233.246 643.096 233.054 643.441 232.857L636.049 220.457C636.049 220.457 636.049 220.457 636.049 220.457C635.762 220.634 635.474 220.806 635.185 220.972C633.791 221.771 632.37 222.434 630.922 222.961C629.253 223.597 627.504 223.915 625.676 223.915C621.809 223.915 618.656 222.764 616.22 220.462C615.902 220.162 615.596 219.842 615.303 219.503L653.456 207.342C652.025 199.155 648.886 192.915 644.037 188.623C639.268 184.251 633.148 182.065 625.676 182.065C620.112 182.065 615.065 183.337 610.534 185.881C606.003 188.345 602.387 191.683 599.684 195.896C596.982 200.109 595.63 204.838 595.63 210.084C595.63 215.569 596.783 220.417 599.088 224.63C601.393 228.843 604.731 232.141 609.103 234.526C613.554 236.91 618.959 238.103 625.318 238.103C628.18 238.103 631.2 237.626 634.38 236.672ZM630.708 198.202L630.697 198.191C629.411 196.97 627.375 196.254 624.364 196.254C620.932 196.254 618.293 197.406 616.319 199.662C614.428 201.823 613.381 204.744 613.284 208.538L633.382 201.734C632.741 200.406 631.856 199.235 630.72 198.213L630.708 198.202ZM634.52 201.349C634.687 201.707 634.84 202.075 634.976 202.453C634.976 202.454 634.976 202.453 634.976 202.453L612.084 210.203V209.13C612.084 209.068 612.084 209.006 612.084 208.944C612.116 204.739 613.229 201.383 615.422 198.877C617.648 196.333 620.629 195.061 624.364 195.061C627.544 195.061 629.928 195.816 631.518 197.327C632.805 198.485 633.806 199.826 634.52 201.349ZM742.346 183.377L751.262 204.362L759.091 183.377H777.937L752.714 242.656L736.002 208.039L720.678 242.757L695.156 183.377H713.961L722.856 203.693L728.801 190.535L725.508 183.377H742.346ZM730.112 190.531L722.839 206.626L713.181 184.569H696.966L720.693 239.772L735.954 205.196L752.646 239.772L776.134 184.569H759.919L751.334 207.58L741.558 184.569H727.369L730.112 190.531ZM782.733 195.048L782.737 195.041C785.396 190.637 789.095 187.191 793.806 184.71C798.534 182.141 803.938 180.873 809.988 180.873C816.113 180.873 821.487 182.139 826.067 184.719C830.624 187.207 834.127 190.662 836.544 195.076C839.038 199.484 840.272 204.457 840.272 209.965C840.272 215.474 839.037 220.484 836.547 224.967C834.13 229.383 830.629 232.878 826.073 235.445C821.487 238.03 816.03 239.295 809.75 239.295C803.869 239.295 798.558 238.151 793.843 235.834L793.836 235.831C789.185 233.505 785.518 230.131 782.856 225.723C780.18 221.291 778.869 216.021 778.869 209.965C778.869 204.448 780.148 199.467 782.729 195.055L782.733 195.048ZM835.503 224.391C837.888 220.099 839.08 215.29 839.08 209.965C839.08 204.639 837.888 199.87 835.503 195.657C833.198 191.445 829.86 188.146 825.488 185.761C821.116 183.297 815.95 182.065 809.988 182.065C804.106 182.065 798.9 183.297 794.369 185.761C789.839 188.146 786.302 191.445 783.758 195.657C781.294 199.87 780.062 204.639 780.062 209.965C780.062 215.847 781.334 220.894 783.877 225.107C786.421 229.32 789.918 232.539 794.369 234.764C798.9 236.99 804.027 238.103 809.75 238.103C815.87 238.103 821.116 236.871 825.488 234.407C829.86 231.943 833.198 228.604 835.503 224.391ZM817.898 200.598L817.893 200.591C815.834 198.106 813.082 196.85 809.511 196.85C806.204 196.85 803.514 198.088 801.355 200.606L801.349 200.613L801.344 200.619C799.18 203.072 798.065 206.196 798.065 210.084C798.065 213.968 799.178 217.138 801.35 219.675C803.503 222.112 806.194 223.318 809.511 223.318C813.092 223.318 815.844 222.095 817.899 219.689C819.997 217.153 821.076 213.978 821.076 210.084C821.076 206.185 819.995 203.056 817.904 200.604L817.898 200.598ZM800.45 220.457C798.065 217.675 796.873 214.217 796.873 210.084C796.873 205.951 798.065 202.533 800.45 199.83C802.835 197.048 805.855 195.657 809.511 195.657C813.406 195.657 816.506 197.048 818.811 199.83C821.116 202.533 822.269 205.951 822.269 210.084C822.269 214.217 821.116 217.675 818.811 220.457C816.506 223.159 813.406 224.511 809.511 224.511C805.855 224.511 802.835 223.159 800.45 220.457ZM868.32 183.377L869.36 192.823C870.659 190.961 872.206 189.295 874 187.826C876.684 185.55 879.357 183.816 882.021 182.648C884.582 181.449 886.728 180.754 888.356 180.754H889.609L888.648 199.977L887.376 199.822C883.698 199.371 880.647 199.979 878.14 201.555C875.533 203.194 873.533 205.344 872.122 208.017C870.696 210.72 869.994 213.471 869.994 216.284V237.864H851.037V183.377H868.32ZM882.514 183.735C879.97 184.847 877.387 186.517 874.764 188.742C872.679 190.447 870.946 192.429 869.565 194.686C869.207 195.27 868.874 195.872 868.564 196.492L867.252 184.569H852.23V236.672H868.802V216.284C868.802 213.263 869.557 210.322 871.068 207.461C872.578 204.6 874.724 202.294 877.506 200.546C880.001 198.978 882.943 198.304 886.333 198.526C886.723 198.551 887.119 198.589 887.521 198.638L888.356 181.946C887.998 181.946 887.597 181.988 887.156 182.072C885.93 182.304 884.383 182.858 882.514 183.735ZM899.939 141.408H919.016V237.864H899.939V141.408ZM942.632 235.79L942.624 235.785C938.605 233.357 935.439 229.887 933.121 225.417L933.117 225.409L933.113 225.402C930.868 220.911 929.768 215.633 929.768 209.607C929.768 203.564 930.994 198.341 933.504 193.988C936 189.663 939.424 186.361 943.764 184.107C948.088 181.862 952.97 180.754 958.383 180.754C961.845 180.754 965.155 181.29 968.304 182.367C970.624 183.141 972.686 184.217 974.479 185.6V141.408H993.436V237.864H974.359V233.533C972.236 234.98 969.927 236.233 967.434 237.292L967.422 237.297L967.41 237.302C964.069 238.638 960.339 239.295 956.237 239.295C951.198 239.295 946.655 238.136 942.64 235.794L942.632 235.79ZM974.359 232.079C974.764 231.789 975.162 231.492 975.552 231.187V236.672H992.244V142.601H975.671V188.265C975.291 187.871 974.894 187.495 974.479 187.138C972.637 185.553 970.451 184.339 967.921 183.496C964.901 182.463 961.721 181.946 958.383 181.946C953.137 181.946 948.447 183.019 944.314 185.165C940.181 187.311 936.922 190.451 934.537 194.584C932.153 198.718 930.96 203.725 930.96 209.607C930.96 215.489 932.034 220.576 934.18 224.868C936.405 229.161 939.426 232.459 943.241 234.764C947.056 236.99 951.388 238.103 956.237 238.103C960.211 238.103 963.788 237.467 966.967 236.195C969.659 235.051 972.123 233.679 974.359 232.079ZM955.414 197.995L955.402 198.002C953.521 199.087 951.996 200.606 950.824 202.584C949.674 204.526 949.083 206.775 949.083 209.369C949.083 211.961 949.673 214.258 950.834 216.288C952.01 218.348 953.539 219.945 955.422 221.105C957.384 222.266 959.477 222.841 961.721 222.841C964.906 222.841 967.465 222.236 969.462 221.099C971.404 219.916 973.042 218.184 974.359 215.856V203.629C973.492 201.442 971.99 199.684 969.802 198.343C967.553 196.965 964.874 196.254 961.721 196.254C959.474 196.254 957.378 196.83 955.414 197.995ZM975.552 203.407V216.165C974.121 218.788 972.293 220.775 970.067 222.126C967.842 223.398 965.06 224.034 961.721 224.034C959.257 224.034 956.952 223.398 954.806 222.126C952.74 220.854 951.07 219.106 949.799 216.88C948.527 214.654 947.891 212.151 947.891 209.369C947.891 206.587 948.527 204.123 949.799 201.977C951.07 199.83 952.74 198.161 954.806 196.969C956.952 195.697 959.257 195.061 961.721 195.061C965.06 195.061 967.961 195.816 970.425 197.327C972.889 198.837 974.598 200.864 975.552 203.407ZM1003.93 144.27H1021.22V214.138H1003.93V144.27ZM1005.19 236.985L1005.18 236.976C1003.07 235.147 1002.02 232.745 1002.02 229.876C1002.02 227.075 1003.08 224.689 1005.15 222.796L1005.16 222.787L1005.17 222.779C1007.32 220.9 1009.95 219.98 1012.99 219.98C1016.03 219.98 1018.6 220.898 1020.6 222.804C1022.67 224.697 1023.72 227.079 1023.72 229.876C1023.72 232.727 1022.73 235.124 1020.71 236.958L1020.7 236.968L1020.69 236.978C1018.67 238.717 1016.07 239.533 1012.99 239.533C1009.91 239.533 1007.28 238.716 1005.2 236.995L1005.19 236.985ZM1019.79 223.676C1018.04 222.007 1015.77 221.172 1012.99 221.172C1010.21 221.172 1007.87 222.007 1005.96 223.676C1004.13 225.345 1003.22 227.412 1003.22 229.876C1003.22 232.419 1004.13 234.486 1005.96 236.076C1007.79 237.586 1010.13 238.341 1012.99 238.341C1015.85 238.341 1018.16 237.586 1019.91 236.076C1021.66 234.486 1022.53 232.419 1022.53 229.876C1022.53 227.412 1021.62 225.345 1019.79 223.676ZM901.132 142.601V236.672H917.824V142.601H901.132ZM1005.12 145.462V212.946H1020.03V145.462H1005.12Z" fill="white"/>
</g>
<path fill-rule="evenodd" clip-rule="evenodd" d="M149.146 13.3895V18.5922H153.048H156.95V13.3895V8.1868H153.048H149.146V13.3895ZM158.685 13.3895V18.5922H167.356H176.027V14.6902C176.027 10.8174 176.019 10.7881 174.943 10.7881C174.028 10.7881 173.859 10.5855 173.859 9.48748V8.1868H166.272H158.685V13.3895ZM310.43 13.3895V18.5922H314.332H318.234V13.3895V8.1868H314.332H310.43V13.3895ZM93.6509 30.2983V40.2701H98.6368H103.623V35.2842V30.2983H111.644H119.664V35.2842V40.2701H133.321H146.979V30.2983V20.3264H138.307H129.636V25.0956V29.8647H125.084H120.531V25.0956V20.3264H107.091H93.6509V30.2983ZM149.146 30.2983V40.2701H162.587H176.027V35.2842V30.2983H179.929H183.831V25.3123V20.3264H166.489H149.146V30.2983ZM319.968 30.2983V40.2701H323.87H327.772V30.2983V20.3264H323.87H319.968V30.2983ZM329.94 30.2983V40.2701H337.311H344.681V35.0674V29.8647H340.996H337.311V25.0956V20.3264H333.625H329.94V30.2983ZM293.088 35.0674V40.2701H305.661H318.234V35.0674V29.8647H305.661H293.088V35.0674ZM346.415 35.0674V40.2701H350.534H354.653V36.3681V32.466H352.051H349.45V31.1654C349.45 29.9677 349.33 29.8647 347.933 29.8647H346.415V35.0674ZM57.232 46.7735V51.5426H53.7635H50.2951V56.7453V61.948H62.8683H75.4414V51.9762V42.0043H66.3367H57.232V46.7735ZM76.3086 51.9762V61.948H80.4274H84.5462V51.9762V42.0043H80.4274H76.3086V51.9762ZM103.189 46.7735V51.5426H94.7348H86.2804V56.7453V61.948H94.9516H103.623V56.9621V51.9762H107.308C110.95 51.9762 110.993 51.9632 110.993 50.8923C110.993 50.0252 111.21 49.8084 112.077 49.8084H113.161V55.8782V61.948H121.832H130.503V56.7453V51.5426H125.517H120.531V46.7735V42.0043H111.86H103.189V46.7735ZM139.608 46.9902V51.9762H143.293H146.979V46.9902V42.0043H143.293H139.608V46.9902ZM149.146 51.9762V61.948H157.817H166.489V51.9762V42.0043H157.817H149.146V51.9762ZM228.054 46.7735V51.5426H224.802H221.551V56.7453V61.948H233.907H246.263V56.9621C246.263 52.2656 246.313 51.9762 247.13 51.9762C247.948 51.9762 247.998 52.2656 247.998 56.9621V61.948H251.683H255.368V56.7453V51.5426H252.116H248.865V50.2419C248.865 49.0854 248.721 48.9413 247.564 48.9413H246.263V45.4728V42.0043H237.159H228.054V46.7735ZM283.983 51.9762V61.948H288.102H292.22V51.9762V42.0043H288.102H283.983V51.9762ZM293.088 51.9762V61.948H305.661H318.234V51.9762V42.0043H305.661H293.088V51.9762ZM319.968 51.9762V61.948H323.87H327.772V51.9762V42.0043H323.87H319.968V51.9762ZM329.94 51.9762V61.948H342.296H354.653V51.9762V42.0043H350.534H346.415V45.4728C346.415 48.6519 346.343 48.9413 345.548 48.9413C344.754 48.9413 344.681 48.6519 344.681 45.4728V42.0043H337.311H329.94V51.9762ZM356.387 51.9762V61.948H360.072H363.758V51.9762V42.0043H360.072H356.387V51.9762ZM365.925 51.9762V61.948H373.296H380.666V60.6473C380.666 59.6361 380.859 59.3466 381.533 59.3466C382.208 59.3466 382.401 59.6361 382.401 60.6473V61.948H386.519H390.638V51.9762V42.0043H378.282H365.925V51.9762ZM392.372 51.9762V61.948H406.029H419.687V56.7453V51.5426H410.148H400.61V46.7735V42.0043H396.491H392.372V51.9762ZM11.2749 53.0601C11.2749 54.4572 11.3778 54.5775 12.5755 54.5775H13.8762V58.2627V61.948H26.2326H38.589V58.2627C38.589 54.6209 38.602 54.5775 39.6729 54.5775C40.7438 54.5775 40.7568 54.6209 40.7568 58.2627V61.948H44.6588H48.5608V56.7453V51.5426H29.9179H11.2749V53.0601ZM274.011 56.7453V61.948H278.13H282.249V56.7453V51.5426H278.13H274.011V56.7453ZM13.8762 68.6681V73.6541H26.2326H38.589V68.6681V63.6822H26.2326H13.8762V68.6681ZM40.7568 73.6541V83.6259H44.6588H48.5608V73.6541V63.6822H44.6588H40.7568V73.6541ZM50.2951 75.8219C50.2951 87.6721 50.2745 87.9615 49.428 87.9615C48.7538 87.9615 48.5608 87.6721 48.5608 86.6608V85.3601H44.6588H40.7568V90.346V95.332H44.6588H48.5608V92.9474C48.5608 90.8522 48.666 90.5628 49.428 90.5628C50.2615 90.5628 50.2951 90.8522 50.2951 97.9333V105.304H62.8683H75.4414V104.003C75.4414 103.288 75.6365 102.702 75.875 102.702C76.1135 102.702 76.3086 103.288 76.3086 104.003V105.304H80.4274H84.5462V99.234C84.5462 93.4536 84.5873 93.1642 85.4133 93.1642C86.2392 93.1642 86.2804 93.4536 86.2804 99.234V105.304H98.6368H110.993V104.003C110.993 102.905 111.162 102.702 112.077 102.702C112.992 102.702 113.161 102.905 113.161 104.003V105.304H121.832H130.503V100.318V95.332H135.489H140.475V90.346V85.3601H126.818H113.161V90.1293V94.8984H108.392H103.623V90.1293V85.3601H97.7697C92.206 85.3601 91.9166 85.3168 91.9166 84.493C91.9166 83.8188 92.206 83.6259 93.2173 83.6259H94.518V78.64V73.6541H99.0704H103.623V68.6681V63.6822H94.9516H86.2804V74.5212V85.3601H81.2945H76.3086V91.4299C76.3086 95.1878 76.1438 97.4998 75.875 97.4998C75.6062 97.4998 75.4414 95.1878 75.4414 91.4299V85.3601H65.4696C55.7872 85.3601 55.4978 85.3352 55.4978 84.493C55.4978 83.6508 55.7872 83.6259 65.4696 83.6259H75.4414V73.6541V63.6822H62.8683H50.2951V75.8219ZM76.3086 73.6541V83.6259H80.4274H84.5462V73.6541V63.6822H80.4274H76.3086V73.6541ZM149.146 68.6681V73.6541H153.048H156.95V68.6681V63.6822H153.048H149.146V68.6681ZM221.551 68.6681V73.6541H229.788H238.026V78.64V83.6259H246.697H255.368V73.6541V63.6822H251.683H247.998V69.752C247.998 75.5325 247.956 75.8219 247.13 75.8219C246.456 75.8219 246.263 75.5324 246.263 74.5212V73.2205H242.578H238.893V68.4514V63.6822H230.222H221.551V68.6681ZM257.536 73.6541V83.6259H269.892H282.249V73.6541V63.6822H269.892H257.536V73.6541ZM283.983 73.6541V83.6259H288.102H292.22V73.6541V63.6822H288.102H283.983V73.6541ZM293.088 73.6541V83.6259H305.661H318.234V73.6541V63.6822H305.661H293.088V73.6541ZM319.968 73.6541V83.6259H323.87H327.772V73.6541V63.6822H323.87H319.968V73.6541ZM329.94 73.6541V83.6259H342.296H354.653V73.6541V63.6822H350.534H346.415V64.9829C346.415 65.9942 346.222 66.2836 345.548 66.2836C344.874 66.2836 344.681 65.9942 344.681 64.9829V63.6822H337.311H329.94V73.6541ZM356.387 73.6541V83.6259H360.072H363.758V73.6541V63.6822H360.072H356.387V73.6541ZM365.925 73.6541V83.6259H378.282H390.638V73.6541V63.6822H386.519H382.401V64.9829C382.401 65.9942 382.208 66.2836 381.533 66.2836C380.859 66.2836 380.666 65.9942 380.666 64.9829V63.6822H373.296H365.925V73.6541ZM392.372 68.6681V73.6541H396.925H401.477V74.738C401.477 75.5325 401.246 75.8219 400.61 75.8219C399.807 75.8219 399.743 76.1113 399.743 79.7239V83.6259H404.729H409.715V78.64V73.6541H418.169H426.623V68.6681V63.6822H409.498H392.372V68.6681ZM4.77148 78.4232V83.6259H8.45673H12.142V78.4232V73.2205H8.45673H4.77148V78.4232ZM113.161 78.4232V83.6259H121.832H130.503V78.4232V73.2205H126.385H122.266V74.5212C122.266 75.5324 122.073 75.8219 121.399 75.8219C120.724 75.8219 120.531 75.5324 120.531 74.5212V73.2205H116.846H113.161V78.4232ZM202.04 78.4232V83.6259H205.942H209.844V78.4232V73.2205H205.942H202.04V78.4232ZM211.579 95.332V105.304H215.481H219.383V95.332V85.3601H215.481H211.579V95.332ZM221.551 95.332V105.304H238.459H255.368V95.332V85.3601H238.459H221.551V95.332ZM257.536 95.332V105.304H269.892H282.249V95.332V85.3601H269.892H257.536V95.332ZM283.983 95.332V105.304H288.102H292.22V95.332V85.3601H288.102H283.983V95.332ZM293.088 95.332V105.304H305.661H318.234V95.332V85.3601H305.661H293.088V95.332ZM319.968 95.332V105.304H323.87H327.772V95.332V85.3601H323.87H319.968V95.332ZM329.94 95.332V105.304H342.296H354.653V95.332V85.3601H342.296H329.94V95.332ZM356.387 95.332V105.304H360.072H363.758V95.332V85.3601H360.072H356.387V95.332ZM365.925 95.332V105.304H369.827H373.729V100.318V95.332H378.499H383.268V90.346V85.3601H374.596H365.925V95.332ZM399.743 90.1293V94.8984H396.058H392.372V100.101V105.304H396.491H400.61V100.318V95.332H405.162H409.715V90.346V85.3601H404.729H399.743V90.1293ZM192.502 100.101V105.304H201.173H209.844V100.101V94.8984H201.173H192.502V100.101ZM50.2951 112.024V117.01H53.7635H57.232V121.996V126.982H66.3367H75.4414V117.01V107.038H62.8683H50.2951V112.024ZM76.3086 117.01V126.982H80.4274H84.5462V117.01V107.038H80.4274H76.3086V117.01ZM86.2804 117.01V126.982H98.6368H110.993V121.996V117.01H115.762H120.531V112.024V107.038H103.406H86.2804V117.01ZM192.502 112.024V117.01H201.173H209.844V112.024V107.038H201.173H192.502V112.024ZM221.551 112.024V117.01H224.802H228.054V121.996V126.982H233.473H238.893V121.996V117.01H243.445H247.998V121.996V126.982H251.683H255.368V121.779V116.576H252.116H248.865V111.807V107.038H243.445H238.026V111.807V116.576H233.473H228.921V111.807V107.038H225.236H221.551V112.024ZM264.906 111.807V116.576H261.221H257.536V121.779V126.982H269.892H282.249V117.01V107.038H273.577H264.906V111.807ZM283.983 117.01V126.982H288.102H292.22V117.01V107.038H288.102H283.983V117.01ZM293.088 117.01V126.982H305.661H318.234V117.01V107.038H305.661H293.088V117.01ZM319.968 117.01V126.982H323.87H327.772V117.01V107.038H323.87H319.968V117.01ZM329.94 117.01V126.982H342.296H354.653V117.01V107.038H342.296H329.94V117.01ZM356.387 112.024V117.01H360.072H363.758V112.024V107.038H360.072H356.387V112.024ZM373.296 121.779V126.982H378.282H383.268V121.779V116.576H378.282H373.296V121.779ZM67.2038 133.702V138.688H71.3226H75.4414V133.702V128.716H71.3226H67.2038V133.702ZM76.3086 138.688V148.66H80.4274H84.5462V138.688V128.716H80.4274H76.3086V138.688ZM103.189 133.702V138.688H107.091H110.993V133.702V128.716H107.091H103.189V133.702ZM192.502 133.485V138.254H188.6H184.698V143.457V148.66H197.271H209.844V138.688V128.716H201.173H192.502V133.485ZM211.579 138.688V148.66H215.481H219.383V138.688V128.716H215.481H211.579V138.688ZM247.998 133.702V138.688H251.683C255.325 138.688 255.368 138.675 255.368 137.604C255.368 136.737 255.585 136.52 256.452 136.52H257.536V142.59V148.66H266.207H274.878V143.674V138.688H278.563H282.249V133.702V128.716H278.13H274.011V133.485V138.254H269.675H265.34V133.485V128.716H261.438H257.536V130.884C257.536 132.907 257.463 133.052 256.452 133.052C255.441 133.052 255.368 132.907 255.368 130.884V128.716H251.683H247.998V133.702ZM283.983 133.702V138.688H288.102H292.22V133.702V128.716H288.102H283.983V133.702ZM293.088 138.688V148.66H305.661H318.234V138.688V128.716H305.661H293.088V138.688ZM319.968 138.688V148.66H323.87H327.772V138.688V128.716H323.87H319.968V138.688ZM329.94 138.688V148.66H338.611H347.282V143.674V138.688H350.968H354.653V133.702V128.716H342.296H329.94V138.688ZM363.324 130.45C363.324 132.088 363.397 132.184 364.625 132.184C365.34 132.184 365.925 132.38 365.925 132.618C365.925 132.856 365.34 133.052 364.625 133.052H363.324V135.87V138.688H368.527H373.729V133.702V128.716H368.527H363.324V130.45ZM86.2804 143.457V148.66H90.3992H94.518V143.457V138.254H90.3992H86.2804V143.457ZM221.551 143.457V148.66H233.907H246.263V143.457V138.254H233.907H221.551V143.457ZM86.2804 155.38V160.366H94.7348H103.189V165.352V170.338H116.846H130.503V165.135V159.932H117.063H103.623V155.163V150.394H94.9516H86.2804V155.38ZM184.698 160.366V170.338H197.271H209.844V165.352C209.844 160.655 209.894 160.366 210.712 160.366C211.529 160.366 211.579 160.655 211.579 165.352V170.338H215.481H219.383V160.366V150.394H215.481H211.579V153.862C211.579 157.041 211.506 157.331 210.712 157.331C209.917 157.331 209.844 157.041 209.844 153.862V150.394H197.271H184.698V160.366ZM221.551 160.366V170.338H238.459H255.368V167.953C255.368 165.698 255.428 165.568 256.452 165.568C257.476 165.568 257.536 165.698 257.536 167.953V170.338H261.438H265.34V165.135V159.932H257.102H248.865V157.331V154.729H247.564C246.293 154.729 246.263 154.682 246.263 152.562V150.394H233.907H221.551V160.366ZM293.088 155.38V160.366H296.99H300.892V165.352V170.338H306.094H311.297V160.366V150.394H302.192H293.088V155.38ZM329.94 160.366V170.338H333.625H337.311V165.352V160.366H342.296H347.282V155.38V150.394H338.611H329.94V160.366ZM356.387 155.38V160.366H360.072H363.758V155.38V150.394H360.072H356.387V155.38ZM93.6509 182.044V192.015H120.315H146.979V186.813V181.61H143.727H140.475V176.841V172.072H117.063H93.6509V182.044ZM192.502 177.058V182.044H201.173H209.844V177.058V172.072H201.173H192.502V177.058ZM211.579 182.044V192.015H215.481H219.383V182.044V172.072H215.481H211.579V182.044ZM221.551 182.044V192.015H238.459H255.368V182.044V172.072H238.459H221.551V182.044ZM336.443 177.058V182.044H345.548H354.653V177.058V172.072H345.548H336.443V177.058ZM149.146 186.813V192.015H153.048H156.95V186.813V181.61H153.048H149.146V186.813ZM103.189 198.736V203.721H107.091C110.964 203.721 110.993 203.714 110.993 202.638C110.993 201.77 111.21 201.554 112.077 201.554H113.161V207.624V213.693H130.07H146.979V203.721V193.75H125.084H103.189V198.736ZM221.551 203.721V213.693H235.208H248.865V208.707V203.721H252.116H255.368V198.736V193.75H238.459H221.551V203.721ZM356.387 203.721V213.693H369.827H383.268V208.491V203.288H381.967C380.956 203.288 380.666 203.095 380.666 202.421C380.666 201.747 380.956 201.554 381.967 201.554H383.268V197.652V193.75H378.282H373.296V198.519V203.288H368.527H363.758V198.519V193.75H360.072H356.387V203.721ZM346.415 208.491V213.693H350.534H354.653V208.491V203.288H350.534H346.415V208.491ZM113.161 225.399V235.371H121.832H130.503V230.385V225.399H135.489H140.475V220.413V215.428H126.818H113.161V225.399ZM221.551 220.413V225.399H224.802H228.054V230.385V235.371H233.473H238.893V230.385V225.399H243.879H248.865V220.413V215.428H235.208H221.551V220.413ZM336.443 225.399V235.371H345.548H354.653V225.399V215.428H345.548H336.443V225.399ZM356.387 225.399V235.371H373.513H390.638V225.399V215.428H373.513H356.387V225.399ZM103.189 247.077V257.049H107.091H110.993V250.979V244.91H112.077C112.944 244.91 113.161 245.126 113.161 245.993C113.161 247.064 113.204 247.077 116.846 247.077H120.531V242.091V237.105H111.86H103.189V247.077ZM363.324 241.007V244.91H364.625C365.723 244.91 365.925 245.079 365.925 245.993V247.077H374.596H383.268V242.091V237.105H373.296H363.324V241.007Z" fill="#F8F8F8"/>
</svg>
